<svg width="18" height="17" viewBox="0 0 18 17" fill="none" xmlns="http://www.w3.org/2000/svg">
<path d="M8.15 12.75H9.85V7.65H8.15V12.75ZM9 5.95C9.24083 5.95 9.44285 5.8684 9.60605 5.7052C9.76925 5.542 9.85057 5.34027 9.85 5.1C9.85 4.85917 9.7684 4.65743 9.6052 4.4948C9.442 4.33217 9.24027 4.25057 9 4.25C8.75917 4.25 8.55743 4.3316 8.3948 4.4948C8.23217 4.658 8.15057 4.85973 8.15 5.1C8.15 5.34083 8.2316 5.54285 8.3948 5.70605C8.558 5.86925 8.75973 5.95057 9 5.95ZM9 17C7.82417 17 6.71917 16.7767 5.685 16.3302C4.65083 15.8837 3.75125 15.2782 2.98625 14.5138C2.22125 13.7488 1.61577 12.8492 1.1698 11.815C0.723833 10.7808 0.500567 9.67583 0.5 8.5C0.5 7.32417 0.723267 6.21917 1.1698 5.185C1.61633 4.15083 2.22182 3.25125 2.98625 2.48625C3.75125 1.72125 4.65083 1.11577 5.685 0.6698C6.71917 0.223833 7.82417 0.000566667 9 0C10.1758 0 11.2808 0.223267 12.315 0.6698C13.3492 1.11633 14.2488 1.72182 15.0138 2.48625C15.7788 3.25125 16.3845 4.15083 16.831 5.185C17.2776 6.21917 17.5006 7.32417 17.5 8.5C17.5 9.67583 17.2767 10.7808 16.8302 11.815C16.3837 12.8492 15.7782 13.7488 15.0138 14.5138C14.2488 15.2788 13.3492 15.8845 12.315 16.331C11.2808 16.7776 10.1758 17.0006 9 17Z" fill="black"/>
</svg>
