<svg width="24" height="24" viewBox="0 0 24 24" fill="none" xmlns="http://www.w3.org/2000/svg">
<path d="M12.75 8.25003C12.75 7.83581 12.4142 7.50003 12 7.50003C11.5858 7.50003 11.25 7.83581 11.25 8.25003V12.4559C11.25 12.7747 11.1282 13.0814 10.9095 13.3134L9.4543 14.8569C9.17015 15.1582 9.18412 15.6329 9.4855 15.9171C9.78689 16.2012 10.2616 16.1872 10.5457 15.8858L12.0009 14.3424C12.482 13.8321 12.75 13.1572 12.75 12.4559V8.25003Z" fill="#2D264B"/>
<path fill-rule="evenodd" clip-rule="evenodd" d="M12 1.50003C6.06294 1.50003 1.25 6.31296 1.25 12.25C1.25 18.1871 6.06294 23 12 23C17.9371 23 22.75 18.1871 22.75 12.25C22.75 6.31296 17.9371 1.50003 12 1.50003ZM2.75 12.25C2.75 7.14139 6.89137 3.00003 12 3.00003C17.1086 3.00003 21.25 7.14139 21.25 12.25C21.25 17.3587 17.1086 21.5 12 21.5C6.89137 21.5 2.75 17.3587 2.75 12.25Z" fill="#2D264B"/>
</svg>
