<svg width="22" height="23" viewBox="0 0 22 23" fill="none" xmlns="http://www.w3.org/2000/svg">
<path fill-rule="evenodd" clip-rule="evenodd" d="M10.75 0.750031C4.81294 0.750031 0 5.56297 0 11.5C0 17.4371 4.81294 22.25 10.75 22.25C16.6871 22.25 21.5 17.4371 21.5 11.5C21.5 5.56297 16.6871 0.750031 10.75 0.750031ZM11.5 7.50003C11.5 7.08582 11.1642 6.75003 10.75 6.75003C10.3358 6.75003 10 7.08582 10 7.50003L10 11C10 12.2427 11.0074 13.25 12.25 13.25H13.75C14.1642 13.25 14.5 12.9142 14.5 12.5C14.5 12.0858 14.1642 11.75 13.75 11.75H12.25C11.8358 11.75 11.5 11.4142 11.5 11L11.5 7.50003Z" fill="#2D264B"/>
</svg>
