<svg width="24" height="24" viewBox="0 0 24 24" fill="none" xmlns="http://www.w3.org/2000/svg">
<path d="M9.6432 16.6491L9.6416 16.6443C9.53965 16.6132 9.4383 16.5801 9.3376 16.5451C7.89224 16.0332 6.62398 15.1175 5.6832 13.9067C4.92302 12.9278 4.40068 11.7857 4.15739 10.5704C3.9141 9.35505 3.95651 8.09984 4.28128 6.90373C4.60605 5.70762 5.20429 4.60333 6.02882 3.67796C6.85335 2.75259 7.88161 2.03146 9.03249 1.57144C10.1834 1.11142 11.4254 0.925103 12.6606 1.02718C13.8958 1.12925 15.0904 1.51693 16.1502 2.15963C17.2099 2.80234 18.1059 3.68248 18.7673 4.73065C19.4287 5.77881 19.8376 6.96633 19.9616 8.19953C20.0048 8.63953 19.6416 8.99793 19.2 8.99793C18.7584 8.99793 18.4048 8.63793 18.352 8.19953C18.2092 7.06806 17.7667 5.99529 17.0702 5.09224C16.3737 4.18919 15.4485 3.48865 14.3904 3.06311C13.3324 2.63757 12.1798 2.50249 11.052 2.67184C9.92419 2.84119 8.86212 3.30883 7.97569 4.02636C7.08926 4.74389 6.41066 5.68526 6.01011 6.75304C5.60955 7.82083 5.5016 8.97626 5.69742 10.0998C5.89323 11.2233 6.3857 12.2741 7.12387 13.1434C7.86204 14.0127 8.81909 14.669 9.896 15.0443C10.1676 14.5489 10.6054 14.1652 11.1321 13.9607C11.6589 13.7563 12.2409 13.7443 12.7756 13.9268C13.3104 14.1093 13.7636 14.4746 14.0554 14.9584C14.3473 15.4422 14.4591 16.0135 14.3712 16.5716C14.2833 17.1297 14.0013 17.639 13.5748 18.0096C13.1483 18.3803 12.6047 18.5886 12.0398 18.5978C11.4748 18.6071 10.9247 18.4167 10.4863 18.0603C10.0479 17.7038 9.74938 17.2041 9.6432 16.6491ZM8.3744 17.8891C6.80813 17.248 5.43842 16.2056 4.4032 14.8667C4.13973 15.2606 3.99938 15.724 4 16.1979V16.9979C4 20.1515 6.976 23.3979 12 23.3979C17.024 23.3979 20 20.1515 20 16.9979V16.1979C20 15.5614 19.7471 14.951 19.2971 14.5009C18.847 14.0508 18.2365 13.7979 17.6 13.7979H15.2C15.5356 14.2461 15.7733 14.7597 15.8979 15.3056C16.0224 15.8515 16.031 16.4174 15.923 16.9668C15.8151 17.5162 15.593 18.0367 15.2711 18.4949C14.9493 18.953 14.5348 19.3385 14.0546 19.6263C13.5743 19.9142 13.039 20.098 12.4833 20.1659C11.9275 20.2338 11.3637 20.1843 10.8283 20.0205C10.2929 19.8568 9.79779 19.5825 9.37509 19.2153C8.95239 18.8481 8.61147 18.3963 8.3744 17.8891ZM16.8 8.99793C16.8 7.53553 16.1456 6.22513 15.1136 5.34513C14.6097 4.91832 14.0232 4.60008 13.3907 4.41029C12.7582 4.22051 12.0934 4.16327 11.4378 4.24216C10.7822 4.32105 10.1499 4.53437 9.58046 4.86877C9.01104 5.20317 8.51675 5.65146 8.1285 6.18561C7.74025 6.71976 7.46639 7.32828 7.32404 7.9731C7.1817 8.61792 7.17393 9.28517 7.30124 9.93313C7.42854 10.5811 7.68817 11.1958 8.06388 11.7388C8.4396 12.2819 8.92332 12.7416 9.4848 13.0891C10.1956 12.5112 11.0839 12.1959 12 12.1963C12.9157 12.195 13.804 12.5091 14.5152 13.0859C15.2137 12.6566 15.7904 12.0554 16.1904 11.3397C16.5904 10.624 16.8003 9.81779 16.8 8.99793Z" fill="black"/>
</svg>
