<svg width="24" height="24" viewBox="0 0 24 24" fill="none" xmlns="http://www.w3.org/2000/svg">
<path d="M3.257 11.0051C2.92363 11.241 2.69761 11.5997 2.62868 12.0022C2.55975 12.4048 2.65356 12.8182 2.88946 13.1516L4.66837 15.6656C5.00175 15.4297 5.41518 15.3359 5.81772 15.4048C6.22026 15.4737 6.57893 15.6997 6.81483 16.0331C7.05073 16.3665 7.14453 16.7799 7.0756 17.1825C7.00667 17.585 6.78066 17.9437 6.44728 18.1796L8.22619 20.6936C8.46209 21.027 8.82076 21.253 9.2233 21.3219C9.62584 21.3908 10.0393 21.297 10.3727 21.0611L20.4287 13.9455C20.7621 13.7096 20.9881 13.3509 21.057 12.9484C21.1259 12.5458 21.0321 12.1324 20.7962 11.799L19.0173 9.28501C18.6839 9.52091 18.2705 9.61471 17.868 9.54579C17.4654 9.47686 17.1068 9.25084 16.8709 8.91747C16.635 8.58409 16.5412 8.17066 16.6101 7.76812C16.679 7.36558 16.905 7.00691 17.2384 6.77101L15.4595 4.257C15.2236 3.92362 14.8649 3.69761 14.4624 3.62868C14.0598 3.55975 13.6464 3.65356 13.313 3.88945L3.257 11.0051ZM11.819 7.77624L13.4288 8.0519L11.8667 17.1743L10.2569 16.8987L11.819 7.77624ZM7.63207 10.7766C8.248 10.3408 9.09585 10.486 9.53169 11.1019C9.74046 11.3969 9.82347 11.7628 9.76247 12.1191C9.70147 12.4753 9.50145 12.7927 9.20641 13.0015C8.59048 13.4373 7.74262 13.2922 7.30679 12.6762C7.09802 12.3812 7.01501 12.0153 7.07601 11.659C7.13701 11.3028 7.33703 10.9854 7.63207 10.7766ZM14.4793 11.9491C15.0952 11.5132 15.9431 11.6584 16.3789 12.2744C16.5877 12.5694 16.6707 12.9353 16.6097 13.2915C16.5487 13.6478 16.3487 13.9652 16.0536 14.174C15.4377 14.6098 14.5898 14.4646 14.154 13.8487C13.9452 13.5537 13.8622 13.1878 13.9232 12.8315C13.9842 12.4753 14.1842 12.1579 14.4793 11.9491Z" fill="#131313"/>
</svg>
