<svg width="22" height="22" viewBox="0 0 22 22" fill="none" xmlns="http://www.w3.org/2000/svg">
<g clip-path="url(#clip0_291_16262)">
<path d="M14.5569 5.69973C14.5569 5.29905 14.4723 4.96628 14.3049 4.71109C14.0853 4.37575 13.7298 4.19126 13.3043 4.19126L8.69618 4.19169C8.09043 4.19191 7.44462 4.58702 7.44312 5.69973V5.78544C7.4431 5.8173 7.44936 5.84885 7.46155 5.87828C7.47373 5.90772 7.4916 5.93447 7.51412 5.95699C7.53665 5.97952 7.56339 5.99739 7.59283 6.00957C7.62227 6.02175 7.65382 6.02801 7.68567 6.028L14.3135 6.02885C14.3455 6.02898 14.3772 6.02278 14.4068 6.01059C14.4364 5.99841 14.4633 5.98048 14.4859 5.95785C14.5086 5.93522 14.5265 5.90834 14.5387 5.87875C14.5508 5.84916 14.5571 5.81744 14.5569 5.78544V5.69973Z" fill="white"/>
<path d="M8.66906 8.89107L8.71578 8.94464C8.85827 9.10984 8.97869 9.50238 8.97847 9.80215L8.97783 17.8937C8.97761 18.37 9.17303 18.7943 9.52744 19.0882C9.84434 19.3507 10.2748 19.4953 10.7391 19.4951L11.2607 19.4951C11.8009 19.4949 12.263 19.307 12.5782 18.9918C12.7218 18.8477 12.835 18.6763 12.9114 18.4877C12.9878 18.2992 13.0258 18.0973 13.0231 17.8939L13.0239 9.80215C13.0239 9.49917 13.1426 9.11348 13.2875 8.94421C13.6337 8.54138 14.1508 7.94035 14.4047 7.15633C14.4104 7.1382 14.4118 7.11897 14.4088 7.10019C14.4057 7.08141 14.3983 7.06362 14.3871 7.04824C14.3759 7.03287 14.3613 7.02034 14.3443 7.01169C14.3274 7.00303 14.3086 6.99848 14.2896 6.99841L7.70013 6.99863C7.68102 6.99861 7.66218 7.00311 7.64514 7.01176C7.6281 7.02041 7.61335 7.03297 7.60209 7.04841C7.59083 7.06385 7.58338 7.08173 7.58035 7.1006C7.57731 7.11946 7.57878 7.13878 7.58464 7.15697C7.81755 7.90928 8.29366 8.45824 8.66906 8.89107ZM11.602 12.2504C11.6148 12.3749 11.5887 12.5003 11.5273 12.6094C11.466 12.7185 11.3724 12.8059 11.2594 12.8596C11.1463 12.9133 11.0194 12.9308 10.8961 12.9095C10.7728 12.8882 10.6591 12.8293 10.5706 12.7408C10.4821 12.6523 10.4232 12.5386 10.4019 12.4153C10.3806 12.2919 10.398 12.1651 10.4518 12.052C10.5055 11.939 10.5929 11.8454 10.702 11.784C10.8111 11.7227 10.9365 11.6966 11.061 11.7094C11.1996 11.7236 11.3291 11.7852 11.4277 11.8837C11.5262 11.9823 11.5878 12.1118 11.602 12.2504Z" fill="white"/>
</g>
<defs>
<clipPath id="clip0_291_16262">
<rect width="15.5149" height="15.5149" fill="white" transform="translate(0.0292969 10.9707) rotate(-45)"/>
</clipPath>
</defs>
</svg>
