<svg width="15" height="14" viewBox="0 0 15 14" fill="none" xmlns="http://www.w3.org/2000/svg">
<path id="Vector" d="M8.22007 0C9.00757 0.00210002 9.40728 0.00630006 9.75238 0.0161002L9.88818 0.0210002C10.045 0.0266002 10.1997 0.0336003 10.3866 0.0420004C11.1314 0.0770007 11.6396 0.194602 12.0855 0.367504C12.5475 0.545306 12.9367 0.786108 13.3259 1.17461C13.6819 1.52454 13.9573 1.94783 14.133 2.41502C14.3059 2.86093 14.4235 3.36913 14.4585 4.11464C14.4669 4.30084 14.4739 4.45554 14.4795 4.61305L14.4837 4.74885C14.4942 5.09325 14.4984 5.49296 14.4998 6.28046L14.5005 6.80267V7.71968C14.5022 8.23027 14.4969 8.74085 14.4844 9.25129L14.4802 9.38709C14.4746 9.5446 14.4676 9.6993 14.4592 9.8855C14.4242 10.631 14.3052 11.1385 14.133 11.5851C13.9578 12.0526 13.6823 12.476 13.3259 12.8255C12.9759 13.1814 12.5526 13.4568 12.0855 13.6326C11.6396 13.8055 11.1314 13.9231 10.3866 13.9581C10.2205 13.966 10.0544 13.973 9.88818 13.9791L9.75238 13.9833C9.40728 13.9931 9.00757 13.998 8.22007 13.9994L7.69786 14.0001H6.78155C6.27073 14.0019 5.75991 13.9965 5.24924 13.984L5.11343 13.9798C4.94726 13.9735 4.78112 13.9663 4.61503 13.9581C3.87022 13.9231 3.36202 13.8055 2.91541 13.6326C2.44828 13.4572 2.02516 13.1817 1.6757 12.8255C1.31943 12.4757 1.04375 12.0524 0.867892 11.5851C0.694991 11.1392 0.577389 10.631 0.542389 9.8855C0.53459 9.7194 0.52759 9.55326 0.521389 9.38709L0.517889 9.25129C0.504989 8.74086 0.499155 8.23027 0.500389 7.71968V6.28046C0.498435 5.76988 0.503569 5.25929 0.515789 4.74885L0.520689 4.61305C0.526289 4.45554 0.533289 4.30084 0.541689 4.11464C0.576689 3.36913 0.694291 2.86163 0.867192 2.41502C1.04297 1.94735 1.3192 1.52393 1.6764 1.17461C2.02577 0.81864 2.44861 0.543196 2.91541 0.367504C3.36202 0.194602 3.86952 0.0770007 4.61503 0.0420004C4.80123 0.0336003 4.95663 0.0266002 5.11343 0.0210002L5.24924 0.0168001C5.75968 0.00436294 6.27026 -0.0010043 6.78085 0.000699956L8.22007 0ZM7.50046 3.50004C6.57219 3.50004 5.68194 3.86879 5.02556 4.52517C4.36918 5.18156 4.00042 6.0718 4.00042 7.00007C4.00042 7.92834 4.36918 8.81858 5.02556 9.47497C5.68194 10.1314 6.57219 10.5001 7.50046 10.5001C8.42873 10.5001 9.31897 10.1314 9.97536 9.47497C10.6317 8.81858 11.0005 7.92834 11.0005 7.00007C11.0005 6.0718 10.6317 5.18156 9.97536 4.52517C9.31897 3.86879 8.42873 3.50004 7.50046 3.50004ZM7.50046 4.90005C7.77624 4.9 8.04932 4.95428 8.30413 5.05977C8.55893 5.16526 8.79046 5.31991 8.9855 5.51488C9.18054 5.70986 9.33526 5.94134 9.44084 6.1961C9.54642 6.45087 9.60078 6.72394 9.60083 6.99972C9.60088 7.2755 9.5466 7.54859 9.44111 7.80339C9.33562 8.05819 9.18097 8.28972 8.986 8.48476C8.79102 8.6798 8.55954 8.83452 8.30478 8.9401C8.05001 9.04568 7.77694 9.10005 7.50116 9.10009C6.9442 9.10009 6.41005 8.87884 6.01622 8.48501C5.62239 8.09118 5.40114 7.55703 5.40114 7.00007C5.40114 6.44311 5.62239 5.90896 6.01622 5.51513C6.41005 5.1213 6.9442 4.90005 7.50116 4.90005M11.1762 2.45002C10.9441 2.45002 10.7216 2.54221 10.5575 2.70631C10.3934 2.8704 10.3012 3.09297 10.3012 3.32503C10.3012 3.5571 10.3934 3.77966 10.5575 3.94376C10.7216 4.10785 10.9441 4.20004 11.1762 4.20004C11.4083 4.20004 11.6308 4.10785 11.7949 3.94376C11.959 3.77966 12.0512 3.5571 12.0512 3.32503C12.0512 3.09297 11.959 2.8704 11.7949 2.70631C11.6308 2.54221 11.4083 2.45002 11.1762 2.45002Z" fill="black"/>
</svg>
