<svg width="24" height="24" viewBox="0 0 24 24" fill="none" xmlns="http://www.w3.org/2000/svg">
<path d="M17.657 5.304C14.533 2.231 9.468 2.231 6.344 5.304C3.22 8.378 3.22 13.361 6.344 16.434L12 21.999L17.657 16.434C20.781 13.361 20.781 8.378 17.657 5.304ZM12 13.499C11.332 13.499 10.705 13.239 10.232 12.767C9.257 11.792 9.257 10.206 10.232 9.231C10.704 8.759 11.332 8.499 12 8.499C12.668 8.499 13.296 8.759 13.768 9.231C14.743 10.206 14.743 11.793 13.768 12.767C13.296 13.239 12.668 13.499 12 13.499Z" fill="black"/>
</svg>
