<!DOCTYPE svg PUBLIC "-//W3C//DTD SVG 1.1//EN" "http://www.w3.org/Graphics/SVG/1.1/DTD/svg11.dtd">

<!-- Uploaded to: SVG Repo, www.svgrepo.com, Transformed by: SVG Repo Mixer Tools -->
<svg width="50" height="50s" viewBox="00 0 18 17" fill="none" xmlns="http://www.w3.org/2000/svg">

<g id="SVGRepo_bgCarrier" stroke-width="0"/>

<g id="SVGRepo_tracerCarrier" stroke-linecap="round" stroke-linejoin="round" stroke="#CCCCCC" stroke-width="1.584"/>

<g id="SVGRepo_iconCarrier"> <path d="M12 12.5C12.2761 12.5 12.5 12.2761 12.5 12C12.5 11.7239 12.2761 11.5 12 11.5C11.7239 11.5 11.5 11.7239 11.5 12C11.5 12.2761 11.7239 12.5 12 12.5Z" fill="#000000" stroke="#000000" stroke-width="1.5" stroke-linecap="round" stroke-linejoin="round"/> <path d="M12 18.5C12.2761 18.5 12.5 18.2761 12.5 18C12.5 17.7239 12.2761 17.5 12 17.5C11.7239 17.5 11.5 17.7239 11.5 18C11.5 18.2761 11.7239 18.5 12 18.5Z" fill="#000000" stroke="#000000" stroke-width="1.5" stroke-linecap="round" stroke-linejoin="round"/> <path d="M12 6.5C12.2761 6.5 12.5 6.27614 12.5 6C12.5 5.72386 12.2761 5.5 12 5.5C11.7239 5.5 11.5 5.72386 11.5 6C11.5 6.27614 11.7239 6.5 12 6.5Z" fill="#000000" stroke="#000000" stroke-width="1.5" stroke-linecap="round" stroke-linejoin="round"/> </g>

</svg>