<svg width="24" height="24" viewBox="0 0 24 24" fill="none" xmlns="http://www.w3.org/2000/svg">
<path fill-rule="evenodd" clip-rule="evenodd" d="M12 7.25C10.4812 7.25 9.24999 8.48122 9.24999 10C9.24999 11.2588 10.0957 12.32 11.25 12.6465V16C11.25 16.4142 11.5858 16.75 12 16.75C12.4142 16.75 12.75 16.4142 12.75 16V12.6465C13.9042 12.32 14.75 11.2588 14.75 10C14.75 8.48122 13.5188 7.25 12 7.25ZM10.75 10C10.75 9.30964 11.3096 8.75 12 8.75C12.6903 8.75 13.25 9.30964 13.25 10C13.25 10.6904 12.6903 11.25 12 11.25C11.3096 11.25 10.75 10.6904 10.75 10Z" fill="#2D264B"/>
<path fill-rule="evenodd" clip-rule="evenodd" d="M9.56296 1.25C8.02116 1.25 6.77129 2.49987 6.77129 4.04167C6.77129 4.75503 6.19299 5.33333 5.47963 5.33333H5.17076C3.59471 5.33333 2.19079 6.55273 2.2763 8.24648C2.37782 10.2575 2.82447 13.3918 4.45363 16.3608C4.90992 17.1923 5.51931 18.0092 6.17807 18.7703L6.22767 18.8276C7.17534 19.9226 7.9655 20.8356 8.81497 21.4579C9.72865 22.1273 10.7038 22.4607 12.0001 22.4607C13.2964 22.4607 14.2716 22.1273 15.1853 21.4579C16.0348 20.8356 16.8249 19.9226 17.7726 18.8276L17.8222 18.7703C18.4809 18.0092 19.0903 17.1923 19.5466 16.3608C21.23 13.2931 21.6497 9.82667 21.7325 7.66561C21.7971 5.97999 20.4032 4.75 18.8183 4.75H18.229C17.6767 4.75 17.229 4.30228 17.229 3.75C17.229 2.36929 16.1097 1.25 14.729 1.25H9.56296ZM8.27129 4.04167C8.27129 3.3283 8.84959 2.75 9.56296 2.75H14.729C15.2813 2.75 15.729 3.19772 15.729 3.75C15.729 5.13071 16.8483 6.25 18.229 6.25H18.8183C19.656 6.25 20.2617 6.8731 20.2336 7.60819C20.1545 9.67293 19.7519 12.8686 18.2316 15.6392C17.8427 16.348 17.3041 17.0768 16.688 17.7886C15.6779 18.9557 14.9958 19.7373 14.2988 20.2479C13.6513 20.7223 12.9889 20.9607 12.0001 20.9607C11.0113 20.9607 10.349 20.7223 9.70143 20.2479C9.00445 19.7373 8.32236 18.9557 7.31224 17.7886C6.69616 17.0768 6.1576 16.348 5.76866 15.6392C4.29017 12.9448 3.86984 10.0616 3.77439 8.17085C3.73807 7.45149 4.33062 6.83333 5.17076 6.83333H5.47963C7.02142 6.83333 8.27129 5.58346 8.27129 4.04167Z" fill="#2D264B"/>
</svg>
