<svg width="93" height="93" viewBox="0 0 93 93" fill="none" xmlns="http://www.w3.org/2000/svg">
<path d="M85.1894 41.5521L68.8055 55.8509L73.7134 77.1391C73.9731 78.252 73.899 79.4168 73.5003 80.4878C73.1017 81.5588 72.3962 82.4885 71.472 83.1607C70.5478 83.8329 69.446 84.2178 68.3042 84.2672C67.1625 84.3166 66.0316 84.0283 65.0528 83.4384L46.4855 72.1767L27.9581 83.4384C26.9793 84.0283 25.8484 84.3166 24.7067 84.2672C23.5649 84.2178 22.4631 83.8329 21.5389 83.1607C20.6147 82.4885 19.9092 81.5588 19.5106 80.4878C19.1119 79.4168 19.0378 78.252 19.2975 77.1391L24.1982 55.8727L7.81055 41.5521C6.94379 40.8046 6.31703 39.8178 6.00887 38.7154C5.70072 37.6131 5.72487 36.4443 6.07832 35.3557C6.43176 34.267 7.09876 33.3069 7.99567 32.5958C8.89257 31.8847 9.97946 31.4543 11.12 31.3584L32.7207 29.4875L41.1525 9.3763C41.5928 8.32102 42.3355 7.41962 43.2871 6.78558C44.2387 6.15155 45.3565 5.81323 46.5 5.81323C47.6435 5.81323 48.7613 6.15155 49.7129 6.78558C50.6645 7.41962 51.4072 8.32102 51.8475 9.3763L60.3047 29.4875L81.8981 31.3584C83.0387 31.4543 84.1256 31.8847 85.0225 32.5958C85.9194 33.3069 86.5864 34.267 86.9398 35.3557C87.2933 36.4443 87.3174 37.6131 87.0093 38.7154C86.7011 39.8178 86.0744 40.8046 85.2076 41.5521H85.1894Z" fill="black"/>
</svg>
