<svg width="15" height="17" viewBox="0 0 15 17" fill="none" xmlns="http://www.w3.org/2000/svg">
<path d="M9.20833 4.95833H13.1042L9.20833 1.0625V4.95833ZM4.25 0H9.91667L14.1667 4.25V12.75C14.1667 13.1257 14.0174 13.4861 13.7517 13.7517C13.4861 14.0174 13.1257 14.1667 12.75 14.1667H4.25C3.87428 14.1667 3.51394 14.0174 3.24827 13.7517C2.98259 13.4861 2.83333 13.1257 2.83333 12.75V1.41667C2.83333 1.04094 2.98259 0.680609 3.24827 0.414932C3.51394 0.149256 3.87428 0 4.25 0ZM0.708333 2.83333C1.09954 2.83333 1.41667 3.15047 1.41667 3.54167V15.5833H12.0417C12.4329 15.5833 12.75 15.9005 12.75 16.2917C12.75 16.6829 12.4329 17 12.0417 17H1.41667C1.04094 17 0.680609 16.8507 0.414932 16.5851C0.149255 16.3194 0 15.9591 0 15.5833V3.54167C0 3.15046 0.317132 2.83333 0.708333 2.83333Z" fill="black"/>
</svg>
